<svg xmlns="http://www.w3.org/2000/svg" width="29" height="34" viewBox="0 0 29 34"><g><g><path fill="#fff" d="M29.009 24.945c-.043.119-.75 2.437-2.468 4.832-1.486 2.07-3.025 4.132-5.453 4.173-2.387.043-3.155-1.348-5.882-1.348s-3.58 1.307-5.837 1.39c-2.345.084-4.128-2.237-5.625-4.298-3.062-4.218-5.4-11.92-2.26-17.121 1.56-2.582 4.348-4.216 7.374-4.258 2.3-.041 4.473 1.476 5.88 1.476 1.406 0 4.046-1.826 6.821-1.558 1.162.048 4.422.448 6.516 3.37-.167.1-3.892 2.166-3.85 6.467zM14.456 7.848c-.273-1.95.736-3.984 1.89-5.256C17.631 1.156 19.801.087 21.593.018c.23 1.99-.608 3.988-1.853 5.425z"/></g></g></svg>